<?xml version="1.0" encoding="utf-8"?>
<svg id="master-artboard" viewBox="0 0 1274.654541015625 529.5823364257812" version="1.1" xmlns="http://www.w3.org/2000/svg" x="0px" y="0px" style="enable-background:new 0 0 1400 980;" width="1274.654541015625px" height="529.5823364257812px" xmlns:xlink="http://www.w3.org/1999/xlink"><rect id="ee-background" x="0" y="0" width="1274.654541015625" height="529.5823364257812" style="fill: white; fill-opacity: 0; pointer-events: none;"/><defs><linearGradient id="linearGradient11301">
      <stop id="stop11303" offset="0" style="stop-color:#ffe052;stop-opacity:1"/>
      <stop id="stop11305" offset="1" style="stop-color:#ffc331;stop-opacity:1"/>
    </linearGradient><linearGradient gradientUnits="userSpaceOnUse" y2="168.1012" x2="147.77737" y1="111.92053" x1="89.136749" id="linearGradient11307" xlink:href="#linearGradient11301"/><linearGradient id="linearGradient9515">
      <stop id="stop9517" offset="0" style="stop-color:#387eb8;stop-opacity:1"/>
      <stop id="stop9519" offset="1" style="stop-color:#366994;stop-opacity:1"/>
    </linearGradient><linearGradient gradientUnits="userSpaceOnUse" y2="131.85291" x2="110.14919" y1="77.070274" x1="55.549179" id="linearGradient9521" xlink:href="#linearGradient9515"/><style id="ee-google-fonts">@import url(https://fonts.googleapis.com/css?family=Geostar:400);</style></defs><g transform="matrix(2.17002010345459, 0, 0, 2.17002010345459, -71.75878787804544, -56.128997562214664)"><path d="M 0 0 H 0 V 0 H 0 V 0 Z" id="backgroundrect" fill="none" stroke="none"/><g class="currentLayer" style=""><title>Layer 1</title><g id="svg_2" class="selected">
	<g id="svg_3">
		<path fill="#FFFFFF" d="M87.62993151664733,28.439547866821286 h23.872 v110.496 c-12.246,2.325 -21.237,3.255 -31.002,3.255 c-29.142,0 -44.333,-13.174 -44.333,-38.443 c0,-24.336 16.122,-40.147 41.078,-40.147 c3.875,0 6.82,0.3110000000000001 10.386,1.239 V28.439547866821286 zM87.62993151664733,84.05954786682129 c-2.79,-0.929 -5.115,-1.239 -8.06,-1.239 c-12.091,0 -19.067,7.441 -19.067,20.46 c0,12.713000000000001 6.666,19.688 18.912,19.688 c2.6340000000000003,0 4.805,-0.15500000000000005 8.215,-0.6180000000000002 V84.05954786682129 z" id="svg_4"/>
		<path fill="#FFFFFF" d="M149.47793151664735,65.30354786682129 v55.341 c0,19.065 -1.395,28.21 -5.58,36.117 c-3.8760000000000003,7.596 -8.992,12.399000000000001 -19.532,17.67 l-22.167,-10.541 c10.541,-4.96 15.656,-9.297 18.911,-15.966 c3.411,-6.819 4.497,-14.727 4.497,-35.498 V65.30354786682129 H149.47793151664735 zM125.60693151664734,28.56654786682129 h23.871 v24.493 h-23.871 V28.56654786682129 z" id="svg_5"/>
		<path fill="#FFFFFF" d="M163.89693151664733,70.72954786682129 c10.542,-4.961 20.617,-7.13 31.623,-7.13 c12.246,0 20.306,3.255 23.872,9.611 c2.014,3.564 2.6340000000000003,8.214 2.6340000000000003,18.137 v48.517 c-10.697000000000001,1.552 -24.182,2.636 -34.102,2.636 c-19.996,0 -28.988,-6.977 -28.988,-22.476 c0,-16.744 11.936,-24.493 41.234,-26.975 v-5.271 c0,-4.339 -2.17,-5.888 -8.216,-5.888 c-8.835,0 -18.756,2.479 -28.058,7.285 V70.72954786682129 zM201.25493151664733,108.70754786682129 c-15.812,1.552 -20.927,4.031 -20.927,10.231 c0,4.65 2.946,6.821 9.456,6.821 c3.566,0 6.82,-0.3110000000000001 11.471,-1.084 V108.70754786682129 z" id="svg_6"/>
		<path fill="#FFFFFF" d="M233.65293151664733,69.02554786682128 c14.105,-3.722 25.731,-5.426 37.512,-5.426 c12.246,0 21.082,2.7880000000000003 26.354,8.216 c4.96,5.113 6.509,10.693 6.509,22.632 v46.813 h-23.871 v-45.884 c0,-9.145 -3.1,-12.557 -11.625,-12.557 c-3.255,0 -6.2,0.3110000000000001 -11.007,1.706 v56.734 h-23.871 V69.02554786682128 z" id="svg_7"/>
		<path fill="#FFFFFF" d="M313.30793151664733,154.28154786682128 c8.372,4.339 16.742,6.354 25.577,6.354 c15.655,0 22.321,-6.354 22.321,-21.546 c0,-0.15400000000000005 0,-0.3100000000000001 0,-0.467 c-4.65,2.326 -9.301,3.257 -15.5,3.257 c-20.927,0 -34.26,-13.797 -34.26,-35.652 c0,-27.128 19.688,-42.473 54.564,-42.473 c10.232,0 19.688,1.084 31.159,3.407 l-8.174,17.222 c-6.356,-1.241 -0.509,-0.16700000000000007 -5.312,-0.6320000000000002 v2.48 l0.3090000000000001,10.074 l0.15400000000000005,13.022 c0.15500000000000005,3.253 0.15500000000000005,6.51 0.3110000000000001,9.764 c0,2.9450000000000003 0,4.3420000000000005 0,6.5120000000000005 c0,20.462 -1.705,30.073 -6.82,37.977 c-7.441,11.627 -20.307,17.362 -38.598,17.362 c-9.301,0 -17.36,-1.3960000000000001 -25.732,-4.651 V154.28154786682128 zM360.74193151664736,82.97554786682129 c-0.3100000000000001,0 -0.6190000000000002,0 -0.774,0 h-1.706 c-4.649,-0.15500000000000005 -10.074,1.084 -13.796,3.409 c-5.734,3.257 -8.681000000000001,9.146 -8.681000000000001,17.518 c0,11.937 5.892,18.756 16.432,18.756 c3.255,0 5.891,-0.6200000000000002 8.99,-1.55 v-1.705 v-6.51 c0,-2.79 -0.15400000000000005,-5.892 -0.15400000000000005,-9.146 l-0.15400000000000005,-11.006 l-0.15600000000000006,-7.905 V82.97554786682129 z" id="svg_8"/>
		<path fill="#FFFFFF" d="M434.22793151664735,63.290547866821285 c23.871,0 38.443,15.037 38.443,39.371 c0,24.957 -15.19,40.613 -39.373,40.613 c-23.873,0 -38.599,-15.036 -38.599,-39.216 C394.6999315166473,78.9445478668213 409.89193151664733,63.290547866821285 434.22793151664735,63.290547866821285 zM433.76093151664736,124.05354786682128 c9.147,0 14.573,-7.596 14.573,-20.773 c0,-13.019 -5.271,-20.771 -14.415,-20.771 c-9.457,0 -14.884,7.598 -14.884,20.771 C419.03593151664734,116.45854786682129 424.4619315166473,124.05354786682128 433.76093151664736,124.05354786682128 z" id="svg_9"/>
	</g>
</g></g></g><g transform="matrix(2.7662670612335205, 0, 0, 2.7662670612335205, 964.09577301174, 4.6790604266863625)"><metadata id="metadata2174">
    
  </metadata><g id="layer1" transform="translate(-473.36088,-251.72485)">
    <g id="g1894" transform="translate(428.42338,184.2561)">
      <path style="opacity:1;color:#000000;fill:url(#linearGradient9521);fill-opacity:1;fill-rule:nonzero;stroke:none;stroke-width:1;stroke-linecap:butt;stroke-linejoin:miter;marker:none;marker-start:none;marker-mid:none;marker-end:none;stroke-miterlimit:4;stroke-dasharray:none;stroke-dashoffset:0;stroke-opacity:1;visibility:visible;display:inline;overflow:visible" d="M 99.75,67.46875 C 71.718268,67.468752 73.46875,79.625 73.46875,79.625 L 73.5,92.21875 L 100.25,92.21875 L 100.25,96 L 62.875,96 C 62.875,96 44.9375,93.965724 44.9375,122.25 C 44.937498,150.53427 60.59375,149.53125 60.59375,149.53125 L 69.9375,149.53125 L 69.9375,136.40625 C 69.9375,136.40625 69.433848,120.75 85.34375,120.75 C 101.25365,120.75 111.875,120.75 111.875,120.75 C 111.875,120.75 126.78125,120.99096 126.78125,106.34375 C 126.78125,91.696544 126.78125,82.125 126.78125,82.125 C 126.78125,82.124998 129.04443,67.46875 99.75,67.46875 z M 85,75.9375 C 87.661429,75.937498 89.8125,78.088571 89.8125,80.75 C 89.812502,83.411429 87.661429,85.5625 85,85.5625 C 82.338571,85.562502 80.1875,83.411429 80.1875,80.75 C 80.187498,78.088571 82.338571,75.9375 85,75.9375 z " id="path8615"/>
      <path id="path8620" d="M 100.5461,177.31485 C 128.57784,177.31485 126.82735,165.1586 126.82735,165.1586 L 126.7961,152.56485 L 100.0461,152.56485 L 100.0461,148.7836 L 137.4211,148.7836 C 137.4211,148.7836 155.3586,150.81787 155.3586,122.53359 C 155.35861,94.249323 139.70235,95.252343 139.70235,95.252343 L 130.3586,95.252343 L 130.3586,108.37734 C 130.3586,108.37734 130.86226,124.03359 114.95235,124.03359 C 99.042448,124.03359 88.421098,124.03359 88.421098,124.03359 C 88.421098,124.03359 73.514848,123.79263 73.514848,138.43985 C 73.514848,153.08705 73.514848,162.6586 73.514848,162.6586 C 73.514848,162.6586 71.251668,177.31485 100.5461,177.31485 z M 115.2961,168.8461 C 112.63467,168.8461 110.4836,166.69503 110.4836,164.0336 C 110.4836,161.37217 112.63467,159.2211 115.2961,159.2211 C 117.95753,159.2211 120.1086,161.37217 120.1086,164.0336 C 120.10861,166.69503 117.95753,168.8461 115.2961,168.8461 z " style="opacity:1;color:#000000;fill:url(#linearGradient11307);fill-opacity:1;fill-rule:nonzero;stroke:none;stroke-width:1;stroke-linecap:butt;stroke-linejoin:miter;marker:none;marker-start:none;marker-mid:none;marker-end:none;stroke-miterlimit:4;stroke-dasharray:none;stroke-dashoffset:0;stroke-opacity:1;visibility:visible;display:inline;overflow:visible"/>
    </g>
  </g></g><path d="M 361.3908386230469 406.4964294433594 L 361.3908386230469 410.83642578125 L 366.55084228515625 410.83642578125 L 366.55084228515625 411.91644287109375 L 361.3908386230469 411.91644287109375 L 361.3908386230469 421.0164489746094 L 363.7708435058594 421.0164489746094 L 363.7708435058594 422.096435546875 L 355.0108337402344 422.096435546875 L 355.0108337402344 421.0164489746094 L 357.3908386230469 421.0164489746094 L 357.3908386230469 411.91644287109375 L 355.0108337402344 411.91644287109375 L 355.0108337402344 410.83642578125 L 357.3908386230469 410.83642578125 L 357.3908386230469 405.41644287109375 L 367.42083740234375 405.41644287109375 L 367.42083740234375 406.4964294433594 L 361.3908386230469 406.4964294433594 M 360.31085205078125 406.4964294433594 L 358.4708251953125 406.4964294433594 L 358.4708251953125 421.0164489746094 L 360.31085205078125 421.0164489746094 L 360.31085205078125 406.4964294433594 ZM 373.6186828613281 421.0164489746094 L 375.9986877441406 421.0164489746094 L 375.9986877441406 422.096435546875 L 367.23870849609375 422.096435546875 L 367.23870849609375 421.0164489746094 L 369.6186828613281 421.0164489746094 L 369.6186828613281 406.4964294433594 L 367.23870849609375 406.4964294433594 L 367.23870849609375 405.41644287109375 L 373.6186828613281 405.41644287109375 L 373.6186828613281 421.0164489746094 M 372.5386962890625 406.4964294433594 L 370.6986999511719 406.4964294433594 L 370.6986999511719 421.0164489746094 L 372.5386962890625 421.0164489746094 L 372.5386962890625 406.4964294433594 ZM 383.56658935546875 421.0164489746094 L 385.94659423828125 421.0164489746094 L 385.94659423828125 422.096435546875 L 377.18658447265625 422.096435546875 L 377.18658447265625 421.0164489746094 L 379.56658935546875 421.0164489746094 L 379.56658935546875 411.91644287109375 L 377.18658447265625 411.91644287109375 L 377.18658447265625 410.83642578125 L 383.56658935546875 410.83642578125 L 383.56658935546875 421.0164489746094 M 382.4866027832031 411.91644287109375 L 380.6465759277344 411.91644287109375 L 380.6465759277344 421.0164489746094 L 382.4866027832031 421.0164489746094 L 382.4866027832031 411.91644287109375 M 383.7366027832031 409.08642578125 L 379.3965759277344 409.08642578125 L 379.3965759277344 405.41644287109375 L 383.7366027832031 405.41644287109375 L 383.7366027832031 409.08642578125 M 382.6565856933594 406.4964294433594 L 380.4765930175781 406.4964294433594 L 380.4765930175781 408.0064392089844 L 382.6565856933594 408.0064392089844 L 382.6565856933594 406.4964294433594 ZM 403.1764831542969 427.5164489746094 L 387.8664855957031 427.5164489746094 L 387.8664855957031 424.596435546875 L 388.94647216796875 424.596435546875 L 388.94647216796875 426.4364318847656 L 399.1664733886719 426.4364318847656 L 399.1664733886719 422.096435546875 L 387.8664855957031 422.096435546875 L 387.8664855957031 410.83642578125 L 403.1764831542969 410.83642578125 L 403.1764831542969 427.5164489746094 M 399.1664733886719 411.91644287109375 L 388.94647216796875 411.91644287109375 L 388.94647216796875 421.0164489746094 L 399.1664733886719 421.0164489746094 L 399.1664733886719 411.91644287109375 M 402.09649658203125 411.91644287109375 L 400.2464904785156 411.91644287109375 L 400.2464904785156 426.4364318847656 L 402.09649658203125 426.4364318847656 L 402.09649658203125 411.91644287109375 ZM 425.0182800292969 421.0164489746094 L 425.0182800292969 422.096435546875 L 418.79827880859375 422.096435546875 L 418.79827880859375 421.0164489746094 L 421.3682861328125 421.0164489746094 L 421.3682861328125 411.91644287109375 L 411.478271484375 411.91644287109375 L 411.478271484375 421.0164489746094 L 413.8582763671875 421.0164489746094 L 413.8582763671875 422.096435546875 L 405.0982971191406 422.096435546875 L 405.0982971191406 421.0164489746094 L 407.478271484375 421.0164489746094 L 407.478271484375 406.4964294433594 L 405.0982971191406 406.4964294433594 L 405.0982971191406 405.41644287109375 L 411.478271484375 405.41644287109375 L 411.478271484375 410.83642578125 L 422.4482727050781 410.83642578125 L 422.4482727050781 421.0164489746094 L 425.0182800292969 421.0164489746094 M 410.3982849121094 406.4964294433594 L 408.55828857421875 406.4964294433594 L 408.55828857421875 421.0164489746094 L 410.3982849121094 421.0164489746094 L 410.3982849121094 406.4964294433594 ZM 436.7580871582031 421.0164489746094 L 436.7580871582031 422.096435546875 L 428.1180725097656 422.096435546875 L 428.1180725097656 411.91644287109375 L 425.73809814453125 411.91644287109375 L 425.73809814453125 410.83642578125 L 428.1180725097656 410.83642578125 L 428.1180725097656 405.41644287109375 L 432.1180725097656 405.41644287109375 L 432.1180725097656 410.83642578125 L 436.7580871582031 410.83642578125 L 436.7580871582031 411.91644287109375 L 432.1180725097656 411.91644287109375 L 432.1180725097656 421.0164489746094 L 436.7580871582031 421.0164489746094 M 431.0380859375 406.4964294433594 L 429.1980895996094 406.4964294433594 L 429.1980895996094 421.0164489746094 L 431.0380859375 421.0164489746094 L 431.0380859375 406.4964294433594 ZM 453.4139404296875 410.83642578125 L 453.4139404296875 413.7664489746094 L 452.3339538574219 413.7664489746094 L 452.3339538574219 411.91644287109375 L 442.4439392089844 411.91644287109375 L 442.4439392089844 415.9264221191406 L 453.4139404296875 415.9264221191406 L 453.4139404296875 422.096435546875 L 438.4339599609375 422.096435546875 L 438.4339599609375 419.16644287109375 L 439.5139465332031 419.16644287109375 L 439.5139465332031 421.0164489746094 L 449.4039611816406 421.0164489746094 L 449.4039611816406 417.0064392089844 L 438.4339599609375 417.0064392089844 L 438.4339599609375 410.83642578125 L 453.4139404296875 410.83642578125 M 450.48394775390625 417.0064392089844 L 450.48394775390625 421.0164489746094 L 452.3339538574219 421.0164489746094 L 452.3339538574219 417.0064392089844 L 450.48394775390625 417.0064392089844 M 441.36395263671875 411.91644287109375 L 439.5139465332031 411.91644287109375 L 439.5139465332031 415.9264221191406 L 441.36395263671875 415.9264221191406 L 441.36395263671875 411.91644287109375 Z" transform="matrix(10.005083084106445, 0, 0, 10.005083084106445, -3272.11328125, -3758.908447265625)" style="fill: rgb(255, 255, 255); white-space: pre; color: rgb(51, 51, 51);"/><g transform="matrix(1.0220392537710552, 0, 0, 1.0220392537710552, 9.410271275056699, 288.18538727740423)"><g>
	<path style="fill:#F16268;" d="M46.082,96.058c-0.213-3.459-3.066-6.215-6.578-6.215h-1.035c-3.65,0-6.619,2.969-6.619,6.619v7.118&#10;&#9;&#9;C36.242,101.251,41.066,98.703,46.082,96.058z"/>
	<path style="fill:#F16268;" d="M73.19,81.806c-0.548-3.102-3.246-5.468-6.502-5.468h-1.035c-3.65,0-6.619,2.969-6.619,6.618v6.284&#10;&#9;&#9;C63.874,86.695,68.664,84.18,73.19,81.806z"/>
	<path style="fill:#71CDDE;" d="M102.587,195.248c-11.091,5.671-21.435,11.831-22.541,14.173c-1.556,3.35-1.163,8.767-0.628,11.552&#10;&#9;&#9;c4.814-1.169,17.681-5.149,30.173-9.222C107.229,207.76,104.79,202.398,102.587,195.248z"/>
	<path style="fill:#71CDDE;" d="M14.522,119.324c-3.94,2.478-8.789,13.733-8.937,18.577c11.351-0.901,62.153-17.946,88.514-27.123&#10;&#9;&#9;c0.13-13.131,0.714-25.028,1.402-34.306C65.245,92.303,18.206,117.012,14.522,119.324z"/>
	<path style="fill:#F16268;" d="M197.169,96.058c5.016,2.645,9.839,5.193,14.232,7.522v-7.118c0-3.65-2.969-6.619-6.619-6.619&#10;&#9;&#9;h-1.036C200.234,89.843,197.382,92.599,197.169,96.058z"/>
	<path style="fill:#F16268;" d="M184.217,89.241v-6.284c0-3.649-2.969-6.618-6.619-6.618h-1.037c-3.254,0-5.953,2.366-6.5,5.468&#10;&#9;&#9;C174.586,84.18,179.376,86.695,184.217,89.241z"/>
	<path style="fill:#71CDDE;" d="M133.658,211.75c12.49,4.073,25.36,8.053,30.174,9.222c0.535-2.785,0.927-8.198-0.628-11.548&#10;&#9;&#9;c-1.105-2.346-11.449-8.506-22.541-14.177C138.459,202.398,136.02,207.76,133.658,211.75z"/>
	<path style="fill:#71CDDE;" d="M228.728,119.324c-3.684-2.312-50.723-27.021-80.979-42.852c0.688,9.277,1.272,21.175,1.402,34.306&#10;&#9;&#9;c26.36,9.177,77.163,26.222,88.513,27.123C237.514,133.052,232.666,121.801,228.728,119.324z"/>
	<g>
		<path style="fill:#F16268;" d="M140.476,60.576c-2.758-17.822-9.351-38.635-18.852-38.635c-9.502,0-16.093,20.812-18.851,38.631&#10;&#9;&#9;&#9;c-1.98,12.787-5.823,64.23,0.009,108.169c1.817,13.697,4.5,23.639,7.309,30.852c0.448-6.007,1.059-10.964,1.168-11.421&#10;&#9;&#9;&#9;c1.017-4.247,7.63-6.336,9.633-6.875c0.481-0.125,0.982-0.125,1.462,0c2.003,0.539,8.618,2.628,9.635,6.875&#10;&#9;&#9;&#9;c0.11,0.457,0.72,5.413,1.169,11.419c2.809-7.214,5.491-17.153,7.308-30.85C146.298,124.802,142.457,73.359,140.476,60.576z&#10;&#9;&#9;&#9; M128.954,41.558c-6.04-6.391-14.453,0.012-14.81,0.282c-1.226,0.953-2.996,0.737-3.947-0.487&#10;&#9;&#9;&#9;c-0.955-1.22-0.746-2.982,0.473-3.943c4.387-3.452,14.702-7.832,22.374,0.279c1.068,1.128,1.019,2.913-0.112,3.979&#10;&#9;&#9;&#9;c-0.542,0.513-1.239,0.77-1.933,0.77C130.253,42.438,129.507,42.141,128.954,41.558z"/>
	</g>
	<path style="fill:#71CDDE;" d="M126.515,189.484c-0.33-0.619-2.637-1.821-4.889-2.536c-2.285,0.725-4.559,1.917-4.918,2.616&#10;&#9;&#9;c-0.691,2.921-2.129,22.729-1.182,28.205c2.353-0.077,4.938-0.084,5.803-0.084h0.59c0.857,0,3.408,0.007,5.805,0.084&#10;&#9;&#9;C128.672,212.293,127.231,192.478,126.515,189.484z"/>
	<path style="fill:#FFFFFF;" d="M119.827,20.223c0,0-13.5,15-16,77s5.5,104,5.5,104s-11.5-22-12.5-55.5&#10;&#9;&#9;S92.827,28.723,119.827,20.223z"/>
	<path style="fill:#FFFFFF;" d="M97.327,78.723c-1.5,0.5-78.5,41-82,44s-8.5,18-8.5,18s-4.5,0.5-5.5-1.5s7-19,12.5-22.5&#10;&#9;&#9;s86.5-47.5,85-46S97.327,78.723,97.327,78.723z"/>
	<path style="fill:#FFFFFF;" d="M145.388,78.723c1.5,0.5,78.5,41,82,44s8.5,18,8.5,18s4.5,0.5,5.5-1.5s-7-19-12.5-22.5&#10;&#9;&#9;s-86.5-47.5-85-46S145.388,78.723,145.388,78.723z"/>
	<path style="fill:#FFFFFF;" d="M45.577,96.973c0,0-1.75-5.5-6.25-5.25s-8.75,6.25-8.75,6.25l1-7.75l7.25-3.75l6.5,2l4.25,3.5&#10;&#9;&#9;C49.577,91.973,49.077,96.723,45.577,96.973z"/>
	<path style="fill:#FFFFFF;" d="M72.761,83.468c0,0-1.75-5.5-6.25-5.25s-8.75,6.25-8.75,6.25l1-7.75l7.25-3.75l6.5,2l4.25,3.5&#10;&#9;&#9;C76.761,78.468,76.261,83.218,72.761,83.468z"/>
	<path style="fill:#FFFFFF;" d="M197.937,96.973c0,0,1.75-5.5,6.25-5.25s8.75,6.25,8.75,6.25l-1-7.75l-7.25-3.75l-6.5,2l-4.25,3.5&#10;&#9;&#9;C193.937,91.973,194.437,96.723,197.937,96.973z"/>
	<path style="fill:#FFFFFF;" d="M170.753,83.468c0,0,1.75-5.5,6.25-5.25s8.75,6.25,8.75,6.25l-1-7.75l-7.25-3.75l-6.5,2l-4.25,3.5&#10;&#9;&#9;C166.753,78.468,167.253,83.218,170.753,83.468z"/>
	<path style="fill:#FFFFFF;" d="M102.587,195.248c0,0-16.759,11.726-20.009,14.726s-1,11.5-1,11.5l-4.75,1.75c0,0-2.25-9.75,0-15.25&#10;&#9;&#9;S102.587,195.248,102.587,195.248z"/>
	<path style="fill:#FFFFFF;" d="M140.327,195.248c0,0,16.759,11.726,20.009,14.726s1,11.5,1,11.5l4.75,1.75c0,0,2.25-9.75,0-15.25&#10;&#9;&#9;S140.327,195.248,140.327,195.248z"/>
	<path style="fill:#FFFFFF;" d="M121.626,186.948c0,0-2.298,3.275-2.798,4.275s-2,28.25-2,28.25h-3.5c0,0,0.5-28.25,1.5-30.75&#10;&#9;&#9;S119.674,184.922,121.626,186.948z"/>
	<g>
		<path style="fill:#25555E;" d="M231.722,114.559c-1.253-0.786-6.868-3.822-14.693-7.988V96.462&#10;&#9;&#9;&#9;c0-6.755-5.494-12.248-12.247-12.248h-1.036c-5.659,0-10.387,3.876-11.787,9.1c-0.705-0.371-1.407-0.74-2.114-1.113v-9.244&#10;&#9;&#9;&#9;c0-6.754-5.494-12.248-12.248-12.248h-1.037c-5.413,0-9.964,3.555-11.578,8.435c-7.368-3.862-13.677-7.164-17.783-9.313&#10;&#9;&#9;&#9;c-0.403-4.388-0.811-7.857-1.161-10.117c-2.019-13.051-8.442-43.403-24.415-43.403c-15.974,0-22.395,30.353-24.414,43.399&#10;&#9;&#9;&#9;c-0.35,2.261-0.758,5.731-1.161,10.122c-4.106,2.147-10.415,5.449-17.782,9.311c-1.613-4.881-6.164-8.435-11.58-8.435h-1.035&#10;&#9;&#9;&#9;c-6.754,0-12.248,5.494-12.248,12.248v9.244c-0.707,0.373-1.41,0.742-2.114,1.113c-1.399-5.224-6.127-9.1-11.787-9.1h-1.035&#10;&#9;&#9;&#9;c-6.754,0-12.248,5.493-12.248,12.248v10.108c-7.824,4.166-13.44,7.202-14.693,7.988c-5.856,3.68-13.369,19.915-11.119,26.574&#10;&#9;&#9;&#9;c0.374,1.11,1.431,2.434,4.336,2.434c0.002,0,0,0,0.002,0c10.911,0,66.929-19.05,89.329-26.822&#10;&#9;&#9;&#9;c0.016,16.901,0.826,35.399,3.126,52.736c1.039,7.829,2.356,14.504,3.83,20.235c-9.674,4.875-23.931,12.68-26.09,17.333&#10;&#9;&#9;&#9;c-2.842,6.116-1.457,16.848,0.491,18.941c0.532,0.571,1.527,0.949,2.309,0.949c2.902,0,20.839-5.684,32.195-9.376&#10;&#9;&#9;&#9;c0.256,2.088,0.676,3.714,1.33,4.542c0.691,0.876,1.723,1.495,2.875,1.352c2.644-0.132,6.166-0.143,7.188-0.143h0.59&#10;&#9;&#9;&#9;c1.022,0,4.546,0.011,7.188,0.143c0.048,0.004,0.123,0.004,0.17,0.004h0.002c1.054,0,2.014-0.48,2.705-1.355&#10;&#9;&#9;&#9;c0.654-0.828,1.074-2.454,1.33-4.542c11.356,3.692,29.294,9.376,32.194,9.376c0.782,0,1.776-0.378,2.307-0.949&#10;&#9;&#9;&#9;c1.95-2.093,3.335-12.824,0.493-18.937c-2.159-4.656-16.415-12.462-26.09-17.337c1.473-5.731,2.791-12.407,3.83-20.235&#10;&#9;&#9;&#9;c2.301-17.339,3.11-35.835,3.126-52.736c22.402,7.772,78.425,26.822,89.331,26.822c2.904,0,3.961-1.323,4.336-2.434&#10;&#9;&#9;&#9;C245.092,134.474,237.579,118.239,231.722,114.559z M140.467,168.741c-1.817,13.696-4.499,23.636-7.308,30.85&#10;&#9;&#9;&#9;c-0.449-6.006-1.059-10.962-1.169-11.419c-1.017-4.247-7.632-6.336-9.635-6.875c-0.48-0.125-0.982-0.125-1.462,0&#10;&#9;&#9;&#9;c-2.003,0.539-8.616,2.628-9.633,6.875c-0.109,0.457-0.72,5.414-1.168,11.421c-2.809-7.213-5.491-17.154-7.309-30.852&#10;&#9;&#9;&#9;c-5.833-43.938-1.99-95.382-0.009-108.169c2.758-17.818,9.349-38.631,18.851-38.631c9.501,0,16.094,20.812,18.852,38.635&#10;&#9;&#9;&#9;C142.457,73.359,146.298,124.802,140.467,168.741z M163.204,209.424c1.556,3.35,1.164,8.763,0.628,11.548&#10;&#9;&#9;&#9;c-4.813-1.169-17.684-5.148-30.174-9.222c2.362-3.99,4.801-9.352,7.005-16.503C151.755,200.918,162.099,207.079,163.204,209.424z&#10;&#9;&#9;&#9; M80.046,209.42c1.105-2.342,11.449-8.502,22.541-14.173c2.204,7.15,4.643,12.513,7.004,16.503&#10;&#9;&#9;&#9;c-12.492,4.072-25.359,8.053-30.173,9.222C78.883,218.187,78.49,212.77,80.046,209.42z M121.919,217.685h-0.59&#10;&#9;&#9;&#9;c-0.865,0-3.45,0.007-5.803,0.084c-0.947-5.476,0.491-25.284,1.182-28.205c0.359-0.699,2.633-1.891,4.918-2.616&#10;&#9;&#9;&#9;c2.253,0.715,4.559,1.917,4.889,2.536c0.716,2.994,2.157,22.81,1.21,28.285C125.327,217.692,122.777,217.685,121.919,217.685z&#10;&#9;&#9;&#9; M38.468,89.843h1.035c3.512,0,6.365,2.756,6.578,6.215c-5.016,2.645-9.839,5.193-14.232,7.522v-7.118&#10;&#9;&#9;&#9;C31.849,92.812,34.818,89.843,38.468,89.843z M95.501,76.472c-0.688,9.277-1.272,21.175-1.402,34.306&#10;&#9;&#9;&#9;c-26.36,9.177-77.163,26.222-88.514,27.123c0.148-4.845,4.997-16.1,8.937-18.577C18.206,117.012,65.245,92.303,95.501,76.472z&#10;&#9;&#9;&#9; M65.653,76.338h1.035c3.256,0,5.954,2.366,6.502,5.468c-4.526,2.374-9.316,4.889-14.156,7.435v-6.284&#10;&#9;&#9;&#9;C59.034,79.307,62.002,76.338,65.653,76.338z M149.152,110.778c-0.13-13.131-0.714-25.028-1.402-34.306&#10;&#9;&#9;&#9;c30.255,15.831,77.294,40.54,80.979,42.852c3.938,2.478,8.787,13.729,8.937,18.577&#10;&#9;&#9;&#9;C226.314,136.999,175.511,119.955,149.152,110.778z M176.56,76.338h1.037c3.65,0,6.619,2.969,6.619,6.618v6.284&#10;&#9;&#9;&#9;c-4.841-2.546-9.63-5.061-14.157-7.435C170.608,78.705,173.306,76.338,176.56,76.338z M204.782,89.843&#10;&#9;&#9;&#9;c3.65,0,6.619,2.969,6.619,6.619v7.118c-4.393-2.329-9.216-4.878-14.232-7.522c0.213-3.459,3.065-6.215,6.578-6.215H204.782z"/>
	</g>
	<path style="fill:#25555E;" d="M133.044,37.689c-7.672-8.111-17.987-3.731-22.374-0.279c-1.218,0.961-1.427,2.724-0.473,3.943&#10;&#9;&#9;c0.951,1.225,2.721,1.44,3.947,0.487c0.357-0.271,8.77-6.673,14.81-0.282c0.553,0.583,1.299,0.88,2.045,0.88&#10;&#9;&#9;c0.694,0,1.391-0.257,1.933-0.77C134.063,40.602,134.112,38.817,133.044,37.689z"/>
</g><g>
</g><g>
</g><g>
</g><g>
</g><g>
</g><g>
</g><g>
</g><g>
</g><g>
</g><g>
</g><g>
</g><g>
</g><g>
</g><g>
</g><g>
</g></g></svg>